<svg width="23" height="23" viewBox="0 0 23 23" fill="none" xmlns="http://www.w3.org/2000/svg">
<path d="M12.4647 5.80749L11.4999 5.82026C9.12761 5.88147 6.7593 5.59082 4.47217 4.95776V6.29304C6.77067 6.86157 9.13236 7.13424 11.4999 7.10443H11.8897C11.9255 6.8298 12.0099 6.56372 12.1388 6.3186L12.4647 5.80749Z" fill="#343434"/>
<path d="M18.4193 9.83892C16.1642 10.4439 13.8343 10.7235 11.5001 10.6695C9.12736 10.73 6.75883 10.4372 4.4723 9.80059V11.1295C6.77028 11.7015 9.13215 11.9764 11.5001 11.9473C14.0556 11.9473 17.8442 11.6406 19.8056 10.6695V13.9725C19.5948 14.522 16.5729 15.5378 11.5001 15.5378C9.12608 15.5901 6.75753 15.2886 4.4723 14.6434V15.9723C6.77028 16.5443 9.13215 16.8192 11.5001 16.79C14.0556 16.79 17.8442 16.4834 19.8056 15.5123V18.7706C19.582 19.32 16.5601 20.3359 11.5001 20.3359C6.44008 20.3359 3.38619 19.2945 3.19453 18.7642V4.35726C3.38619 3.83337 6.38897 2.78559 11.5001 2.78559C12.4584 2.78559 13.3465 2.82392 14.1515 2.88781L14.8542 1.67392C13.6659 1.55892 12.4904 1.50781 11.5001 1.50781C7.94147 1.50781 1.91675 2.10198 1.91675 4.33809V18.7642C1.91675 20.9939 7.94147 21.5945 11.5001 21.5945C15.0587 21.5945 21.0834 21.0003 21.0834 18.7642V9.81976L18.4193 9.83892Z" fill="#343434"/>
<path d="M17.1541 0.728391L13.4996 7.02783C13.4146 7.15263 13.3658 7.29853 13.3586 7.44936C13.3514 7.60019 13.3861 7.75007 13.4589 7.88238C13.5317 8.01469 13.6397 8.12427 13.7709 8.19897C13.9021 8.27368 14.0515 8.31059 14.2024 8.30561H21.5177C21.6686 8.31059 21.8179 8.27368 21.9492 8.19897C22.0804 8.12427 22.1884 8.01469 22.2612 7.88238C22.3339 7.75007 22.3686 7.60019 22.3615 7.44936C22.3543 7.29853 22.3055 7.15263 22.2204 7.02783L18.566 0.728391C18.4939 0.60512 18.3908 0.50287 18.267 0.431812C18.1431 0.360753 18.0028 0.323364 17.86 0.323364C17.7172 0.323364 17.5769 0.360753 17.4531 0.431812C17.3292 0.50287 17.2261 0.60512 17.1541 0.728391Z" fill="#343434"/>
</svg>
