<svg width="34" height="34" viewBox="0 0 34 34" fill="none" xmlns="http://www.w3.org/2000/svg">
<g filter="url(#filter0_d_346_15653)">
<circle cx="16.7771" cy="15.0546" r="8.64282" fill="white" stroke="#FF8F6B" stroke-width="2"/>
<path d="M20.2278 13.3529H12.9484C12.6613 13.3529 12.4285 13.0989 12.4285 12.7857V11.6512C12.4285 11.3379 12.6613 11.084 12.9484 11.084H20.2278C20.515 11.084 20.7478 11.3379 20.7478 11.6512V12.7857C20.7478 13.0989 20.515 13.3529 20.2278 13.3529ZM19.4479 11.793C19.2325 11.793 19.0579 11.9835 19.0579 12.2184C19.0579 12.4534 19.2325 12.6438 19.4479 12.6438C19.6632 12.6438 19.8378 12.4534 19.8378 12.2184C19.8378 11.9835 19.6632 11.793 19.4479 11.793ZM18.408 11.793C18.1926 11.793 18.018 11.9835 18.018 12.2184C18.018 12.4534 18.1926 12.6438 18.408 12.6438C18.6233 12.6438 18.7979 12.4534 18.7979 12.2184C18.7979 11.9835 18.6233 11.793 18.408 11.793ZM20.2278 16.189H12.9484C12.6613 16.189 12.4285 15.935 12.4285 15.6218V14.4873C12.4285 14.1741 12.6613 13.9201 12.9484 13.9201H20.2278C20.515 13.9201 20.7478 14.1741 20.7478 14.4873V15.6218C20.7478 15.935 20.515 16.189 20.2278 16.189ZM19.4479 14.6291C19.2325 14.6291 19.0579 14.8196 19.0579 15.0546C19.0579 15.2895 19.2325 15.48 19.4479 15.48C19.6632 15.48 19.8378 15.2895 19.8378 15.0546C19.8378 14.8196 19.6632 14.6291 19.4479 14.6291ZM18.408 14.6291C18.1926 14.6291 18.018 14.8196 18.018 15.0546C18.018 15.2895 18.1926 15.48 18.408 15.48C18.6233 15.48 18.7979 15.2895 18.7979 15.0546C18.7979 14.8196 18.6233 14.6291 18.408 14.6291ZM20.2278 19.0251H12.9484C12.6613 19.0251 12.4285 18.7712 12.4285 18.4579V17.3234C12.4285 17.0102 12.6613 16.7562 12.9484 16.7562H20.2278C20.515 16.7562 20.7478 17.0102 20.7478 17.3234V18.4579C20.7478 18.7712 20.515 19.0251 20.2278 19.0251ZM19.4479 17.4653C19.2325 17.4653 19.0579 17.6557 19.0579 17.8907C19.0579 18.1256 19.2325 18.3161 19.4479 18.3161C19.6632 18.3161 19.8378 18.1256 19.8378 17.8907C19.8378 17.6557 19.6632 17.4653 19.4479 17.4653ZM18.408 17.4653C18.1926 17.4653 18.018 17.6557 18.018 17.8907C18.018 18.1256 18.1926 18.3161 18.408 18.3161C18.6233 18.3161 18.7979 18.1256 18.7979 17.8907C18.7979 17.6557 18.6233 17.4653 18.408 17.4653Z" fill="#53B9EA"/>
</g>
<defs>
<filter id="filter0_d_346_15653" x="0.134277" y="0.411743" width="33.2856" height="33.2856" filterUnits="userSpaceOnUse" color-interpolation-filters="sRGB">
<feFlood flood-opacity="0" result="BackgroundImageFix"/>
<feColorMatrix in="SourceAlpha" type="matrix" values="0 0 0 0 0 0 0 0 0 0 0 0 0 0 0 0 0 0 127 0" result="hardAlpha"/>
<feOffset dy="2"/>
<feGaussianBlur stdDeviation="3.5"/>
<feColorMatrix type="matrix" values="0 0 0 0 0 0 0 0 0 0 0 0 0 0 0 0 0 0 0.2 0"/>
<feBlend mode="normal" in2="BackgroundImageFix" result="effect1_dropShadow_346_15653"/>
<feBlend mode="normal" in="SourceGraphic" in2="effect1_dropShadow_346_15653" result="shape"/>
</filter>
</defs>
</svg>
