<svg width="35" height="34" viewBox="0 0 35 34" fill="none" xmlns="http://www.w3.org/2000/svg">
<g filter="url(#filter0_d_346_15657)">
<circle cx="17.6238" cy="14.9996" r="8.64282" fill="white" stroke="#FF8F6B" stroke-width="2"/>
<path d="M21.0745 13.2979H13.7951C13.5079 13.2979 13.2751 13.044 13.2751 12.7307V11.5963C13.2751 11.283 13.5079 11.0291 13.7951 11.0291H21.0745C21.3616 11.0291 21.5944 11.283 21.5944 11.5963V12.7307C21.5944 13.044 21.3616 13.2979 21.0745 13.2979ZM20.2945 11.7381C20.0792 11.7381 19.9046 11.9285 19.9046 12.1635C19.9046 12.3985 20.0792 12.5889 20.2945 12.5889C20.5099 12.5889 20.6845 12.3985 20.6845 12.1635C20.6845 11.9285 20.5099 11.7381 20.2945 11.7381ZM19.2546 11.7381C19.0393 11.7381 18.8647 11.9285 18.8647 12.1635C18.8647 12.3985 19.0393 12.5889 19.2546 12.5889C19.47 12.5889 19.6446 12.3985 19.6446 12.1635C19.6446 11.9285 19.47 11.7381 19.2546 11.7381ZM21.0745 16.1341H13.7951C13.5079 16.1341 13.2751 15.8801 13.2751 15.5668V14.4324C13.2751 14.1191 13.5079 13.8652 13.7951 13.8652H21.0745C21.3616 13.8652 21.5944 14.1191 21.5944 14.4324V15.5668C21.5944 15.8801 21.3616 16.1341 21.0745 16.1341ZM20.2945 14.5742C20.0792 14.5742 19.9046 14.7647 19.9046 14.9996C19.9046 15.2346 20.0792 15.425 20.2945 15.425C20.5099 15.425 20.6845 15.2346 20.6845 14.9996C20.6845 14.7647 20.5099 14.5742 20.2945 14.5742ZM19.2546 14.5742C19.0393 14.5742 18.8647 14.7647 18.8647 14.9996C18.8647 15.2346 19.0393 15.425 19.2546 15.425C19.47 15.425 19.6446 15.2346 19.6446 14.9996C19.6446 14.7647 19.47 14.5742 19.2546 14.5742ZM21.0745 18.9702H13.7951C13.5079 18.9702 13.2751 18.7162 13.2751 18.403V17.2685C13.2751 16.9552 13.5079 16.7013 13.7951 16.7013H21.0745C21.3616 16.7013 21.5944 16.9552 21.5944 17.2685V18.403C21.5944 18.7162 21.3616 18.9702 21.0745 18.9702ZM20.2945 17.4103C20.0792 17.4103 19.9046 17.6008 19.9046 17.8357C19.9046 18.0707 20.0792 18.2612 20.2945 18.2612C20.5099 18.2612 20.6845 18.0707 20.6845 17.8357C20.6845 17.6008 20.5099 17.4103 20.2945 17.4103ZM19.2546 17.4103C19.0393 17.4103 18.8647 17.6008 18.8647 17.8357C18.8647 18.0707 19.0393 18.2612 19.2546 18.2612C19.47 18.2612 19.6446 18.0707 19.6446 17.8357C19.6446 17.6008 19.47 17.4103 19.2546 17.4103Z" fill="#53B9EA"/>
</g>
<defs>
<filter id="filter0_d_346_15657" x="0.980957" y="0.356812" width="33.2856" height="33.2856" filterUnits="userSpaceOnUse" color-interpolation-filters="sRGB">
<feFlood flood-opacity="0" result="BackgroundImageFix"/>
<feColorMatrix in="SourceAlpha" type="matrix" values="0 0 0 0 0 0 0 0 0 0 0 0 0 0 0 0 0 0 127 0" result="hardAlpha"/>
<feOffset dy="2"/>
<feGaussianBlur stdDeviation="3.5"/>
<feColorMatrix type="matrix" values="0 0 0 0 0 0 0 0 0 0 0 0 0 0 0 0 0 0 0.2 0"/>
<feBlend mode="normal" in2="BackgroundImageFix" result="effect1_dropShadow_346_15657"/>
<feBlend mode="normal" in="SourceGraphic" in2="effect1_dropShadow_346_15657" result="shape"/>
</filter>
</defs>
</svg>
