<svg width="35" height="35" viewBox="0 0 35 35" fill="none" xmlns="http://www.w3.org/2000/svg">
<g filter="url(#filter0_d_346_15655)">
<circle cx="17.4021" cy="15.542" r="8.64282" fill="white" stroke="#FF8F6B" stroke-width="2"/>
<path d="M20.8528 13.8403H13.5734C13.2863 13.8403 13.0535 13.5863 13.0535 13.2731V12.1386C13.0535 11.8254 13.2863 11.5714 13.5734 11.5714H20.8528C21.14 11.5714 21.3728 11.8254 21.3728 12.1386V13.2731C21.3728 13.5863 21.14 13.8403 20.8528 13.8403ZM20.0729 12.2804C19.8575 12.2804 19.6829 12.4709 19.6829 12.7059C19.6829 12.9408 19.8575 13.1313 20.0729 13.1313C20.2882 13.1313 20.4628 12.9408 20.4628 12.7059C20.4628 12.4709 20.2882 12.2804 20.0729 12.2804ZM19.033 12.2804C18.8176 12.2804 18.643 12.4709 18.643 12.7059C18.643 12.9408 18.8176 13.1313 19.033 13.1313C19.2483 13.1313 19.4229 12.9408 19.4229 12.7059C19.4229 12.4709 19.2483 12.2804 19.033 12.2804ZM20.8528 16.6764H13.5734C13.2863 16.6764 13.0535 16.4225 13.0535 16.1092V14.9748C13.0535 14.6615 13.2863 14.4075 13.5734 14.4075H20.8528C21.14 14.4075 21.3728 14.6615 21.3728 14.9748V16.1092C21.3728 16.4225 21.14 16.6764 20.8528 16.6764ZM20.0729 15.1166C19.8575 15.1166 19.6829 15.307 19.6829 15.542C19.6829 15.7769 19.8575 15.9674 20.0729 15.9674C20.2882 15.9674 20.4628 15.7769 20.4628 15.542C20.4628 15.307 20.2882 15.1166 20.0729 15.1166ZM19.033 15.1166C18.8176 15.1166 18.643 15.307 18.643 15.542C18.643 15.7769 18.8176 15.9674 19.033 15.9674C19.2483 15.9674 19.4229 15.7769 19.4229 15.542C19.4229 15.307 19.2483 15.1166 19.033 15.1166ZM20.8528 19.5125H13.5734C13.2863 19.5125 13.0535 19.2586 13.0535 18.9453V17.8109C13.0535 17.4976 13.2863 17.2436 13.5734 17.2436H20.8528C21.14 17.2436 21.3728 17.4976 21.3728 17.8109V18.9453C21.3728 19.2586 21.14 19.5125 20.8528 19.5125ZM20.0729 17.9527C19.8575 17.9527 19.6829 18.1431 19.6829 18.3781C19.6829 18.613 19.8575 18.8035 20.0729 18.8035C20.2882 18.8035 20.4628 18.613 20.4628 18.3781C20.4628 18.1431 20.2882 17.9527 20.0729 17.9527ZM19.033 17.9527C18.8176 17.9527 18.643 18.1431 18.643 18.3781C18.643 18.613 18.8176 18.8035 19.033 18.8035C19.2483 18.8035 19.4229 18.613 19.4229 18.3781C19.4229 18.1431 19.2483 17.9527 19.033 17.9527Z" fill="#53B9EA"/>
</g>
<defs>
<filter id="filter0_d_346_15655" x="0.759277" y="0.89917" width="33.2856" height="33.2856" filterUnits="userSpaceOnUse" color-interpolation-filters="sRGB">
<feFlood flood-opacity="0" result="BackgroundImageFix"/>
<feColorMatrix in="SourceAlpha" type="matrix" values="0 0 0 0 0 0 0 0 0 0 0 0 0 0 0 0 0 0 127 0" result="hardAlpha"/>
<feOffset dy="2"/>
<feGaussianBlur stdDeviation="3.5"/>
<feColorMatrix type="matrix" values="0 0 0 0 0 0 0 0 0 0 0 0 0 0 0 0 0 0 0.2 0"/>
<feBlend mode="normal" in2="BackgroundImageFix" result="effect1_dropShadow_346_15655"/>
<feBlend mode="normal" in="SourceGraphic" in2="effect1_dropShadow_346_15655" result="shape"/>
</filter>
</defs>
</svg>
