<svg width="31" height="31" viewBox="0 0 31 31" fill="none" xmlns="http://www.w3.org/2000/svg">
<path d="M30 15.072C30 7.30308 23.5052 1 15.5 1C7.49479 1 1 7.30308 1 15.072C1 22.8409 7.49479 29.144 15.5 29.144C23.5052 29.144 30 22.8409 30 15.072Z" stroke="#53B9EA" stroke-width="2" stroke-miterlimit="10"/>
<path d="M21.6291 14.2739H11.3109L14.469 10.628C14.6167 10.4573 14.6877 10.2371 14.6665 10.016C14.6453 9.79488 14.5336 9.59092 14.3559 9.44899C14.1782 9.30705 13.9492 9.23877 13.7191 9.25915C13.4891 9.27954 13.2769 9.38693 13.1292 9.5577L8.7792 14.5749C8.74994 14.6148 8.72376 14.6567 8.7009 14.7003C8.7009 14.7422 8.7009 14.7672 8.64 14.809C8.60057 14.9049 8.57992 15.007 8.5791 15.1101C8.57992 15.2132 8.60057 15.3152 8.64 15.4111C8.64 15.4529 8.64 15.478 8.7009 15.5198C8.72376 15.5634 8.74994 15.6053 8.7792 15.6453L13.1292 20.6625C13.211 20.7569 13.3134 20.8328 13.4292 20.8848C13.545 20.9368 13.6713 20.9637 13.7991 20.9635C14.0024 20.9639 14.1994 20.8958 14.3559 20.7712C14.444 20.701 14.5168 20.6148 14.5702 20.5175C14.6236 20.4202 14.6565 20.3137 14.667 20.2042C14.6775 20.0947 14.6654 19.9842 14.6314 19.8792C14.5975 19.7742 14.5423 19.6766 14.469 19.5921L11.3109 15.9463H21.6291C21.8598 15.9463 22.0811 15.8582 22.2443 15.7014C22.4074 15.5445 22.4991 15.3319 22.4991 15.1101C22.4991 14.8883 22.4074 14.6756 22.2443 14.5188C22.0811 14.362 21.8598 14.2739 21.6291 14.2739Z" fill="#53B9EA"/>
</svg>
