<svg width="14" height="5" viewBox="0 0 14 5" fill="none" xmlns="http://www.w3.org/2000/svg">
<g opacity="0.3">
<path d="M13.4874 1.03001C12.804 0.304205 11.696 0.304205 11.0126 1.03001C10.3291 1.75582 10.3291 2.93259 11.0126 3.6584C11.696 4.38421 12.804 4.38421 13.4874 3.6584C14.1709 2.93262 14.1709 1.75585 13.4874 1.03001Z" fill="#030229"/>
<path d="M8.23744 1.03001C7.55402 0.304205 6.44598 0.304205 5.76256 1.03001C5.07915 1.75582 5.07915 2.93259 5.76256 3.6584C6.44598 4.38421 7.55402 4.38421 8.23744 3.6584C8.92085 2.93262 8.92085 1.75585 8.23744 1.03001Z" fill="#030229"/>
<path d="M2.98744 1.03001C2.30402 0.304205 1.19598 0.304205 0.512562 1.03001C-0.170854 1.75582 -0.170854 2.93259 0.512562 3.6584C1.19598 4.38421 2.30402 4.38421 2.98744 3.6584C3.67085 2.93262 3.67085 1.75585 2.98744 1.03001Z" fill="#030229"/>
</g>
</svg>
