<svg width="44" height="47" viewBox="0 0 44 47" fill="none" xmlns="http://www.w3.org/2000/svg">
<rect opacity="0.15" x="0.905762" y="1.76758" width="42.1887" height="44.8157" rx="21.0944" fill="#A5A5A5"/>
<rect x="28.7803" y="0.967285" width="11.3005" height="12.0042" rx="5.65027" fill="#53B9EA"/>
<path d="M21.9998 34.8459C23.1048 34.8459 24.0088 33.8855 24.0088 32.7118H19.9908C19.9908 33.2778 20.2025 33.8206 20.5793 34.2208C20.956 34.621 21.467 34.8459 21.9998 34.8459ZM28.0268 28.4436V23.1084C28.0268 19.8326 26.3794 17.0903 23.5066 16.3647V15.6391C23.5066 14.7535 22.8336 14.0386 21.9998 14.0386C21.1661 14.0386 20.4931 14.7535 20.4931 15.6391V16.3647C17.6102 17.0903 15.9729 19.8219 15.9729 23.1084V28.4436L13.9639 30.5777V31.6448H30.0358V30.5777L28.0268 28.4436Z" fill="#828282"/>
</svg>
