<svg width="41" height="41" viewBox="0 0 41 41" fill="none" xmlns="http://www.w3.org/2000/svg">
<g filter="url(#filter0_d_346_15660)">
<circle cx="20.8096" cy="18.272" r="11" fill="white" stroke="#53B9EA" stroke-width="4"/>
<path d="M25.4615 15.9779H15.6478C15.2606 15.9779 14.9468 15.6355 14.9468 15.2132V13.6838C14.9468 13.2614 15.2606 12.9191 15.6478 12.9191H25.4615C25.8486 12.9191 26.1625 13.2614 26.1625 13.6838V15.2132C26.1625 15.6355 25.8486 15.9779 25.4615 15.9779ZM24.41 13.8749C24.1196 13.8749 23.8843 14.1317 23.8843 14.4485C23.8843 14.7652 24.1196 15.022 24.41 15.022C24.7004 15.022 24.9357 14.7652 24.9357 14.4485C24.9357 14.1317 24.7004 13.8749 24.41 13.8749ZM23.008 13.8749C22.7177 13.8749 22.4823 14.1317 22.4823 14.4485C22.4823 14.7652 22.7177 15.022 23.008 15.022C23.2984 15.022 23.5338 14.7652 23.5338 14.4485C23.5338 14.1317 23.2984 13.8749 23.008 13.8749ZM25.4615 19.8014H15.6478C15.2606 19.8014 14.9468 19.459 14.9468 19.0367V17.5073C14.9468 17.085 15.2606 16.7426 15.6478 16.7426H25.4615C25.8486 16.7426 26.1625 17.085 26.1625 17.5073V19.0367C26.1625 19.459 25.8486 19.8014 25.4615 19.8014ZM24.41 17.6985C24.1196 17.6985 23.8843 17.9552 23.8843 18.272C23.8843 18.5888 24.1196 18.8455 24.41 18.8455C24.7004 18.8455 24.9357 18.5888 24.9357 18.272C24.9357 17.9552 24.7004 17.6985 24.41 17.6985ZM23.008 17.6985C22.7177 17.6985 22.4823 17.9552 22.4823 18.272C22.4823 18.5888 22.7177 18.8455 23.008 18.8455C23.2984 18.8455 23.5338 18.5888 23.5338 18.272C23.5338 17.9552 23.2984 17.6985 23.008 17.6985ZM25.4615 23.6249H15.6478C15.2606 23.6249 14.9468 23.2826 14.9468 22.8602V21.3308C14.9468 20.9085 15.2606 20.5661 15.6478 20.5661H25.4615C25.8486 20.5661 26.1625 20.9085 26.1625 21.3308V22.8602C26.1625 23.2826 25.8486 23.6249 25.4615 23.6249ZM24.41 21.522C24.1196 21.522 23.8843 21.7788 23.8843 22.0955C23.8843 22.4123 24.1196 22.6691 24.41 22.6691C24.7004 22.6691 24.9357 22.4123 24.9357 22.0955C24.9357 21.7788 24.7004 21.522 24.41 21.522ZM23.008 21.522C22.7177 21.522 22.4823 21.7788 22.4823 22.0955C22.4823 22.4123 22.7177 22.6691 23.008 22.6691C23.2984 22.6691 23.5338 22.4123 23.5338 22.0955C23.5338 21.7788 23.2984 21.522 23.008 21.522Z" fill="#53B9EA"/>
</g>
<defs>
<filter id="filter0_d_346_15660" x="0.80957" y="0.271973" width="40" height="40" filterUnits="userSpaceOnUse" color-interpolation-filters="sRGB">
<feFlood flood-opacity="0" result="BackgroundImageFix"/>
<feColorMatrix in="SourceAlpha" type="matrix" values="0 0 0 0 0 0 0 0 0 0 0 0 0 0 0 0 0 0 127 0" result="hardAlpha"/>
<feOffset dy="2"/>
<feGaussianBlur stdDeviation="3.5"/>
<feColorMatrix type="matrix" values="0 0 0 0 0 0 0 0 0 0 0 0 0 0 0 0 0 0 0.2 0"/>
<feBlend mode="normal" in2="BackgroundImageFix" result="effect1_dropShadow_346_15660"/>
<feBlend mode="normal" in="SourceGraphic" in2="effect1_dropShadow_346_15660" result="shape"/>
</filter>
</defs>
</svg>
