<svg width="13" height="12" viewBox="0 0 13 12" fill="none" xmlns="http://www.w3.org/2000/svg">
<circle cx="6.43567" cy="5.67225" r="5.17225" fill="white" stroke="#FF8F6B"/>
<path d="M6.43559 5.99953C7.24859 5.99953 7.90819 5.33992 7.90819 4.52692C7.90819 3.71392 7.24859 3.05432 6.43559 3.05432C5.62259 3.05432 4.96298 3.71392 4.96298 4.52692C4.96298 5.33992 5.62259 5.99953 6.43559 5.99953ZM7.74457 6.32677H7.18109C6.95407 6.43108 6.70147 6.49039 6.43559 6.49039C6.1697 6.49039 5.91813 6.43108 5.69008 6.32677H5.12661C4.4036 6.32677 3.81763 6.91274 3.81763 7.63575V7.79937C3.81763 8.07037 4.03749 8.29024 4.30849 8.29024H8.56268C8.83368 8.29024 9.05355 8.07037 9.05355 7.79937V7.63575C9.05355 6.91274 8.46757 6.32677 7.74457 6.32677Z" fill="#FF8F6B"/>
</svg>
