<svg width="12" height="12" viewBox="0 0 12 12" fill="none" xmlns="http://www.w3.org/2000/svg">
<circle cx="6.23084" cy="6.10035" r="5.17225" fill="white" stroke="#FFD66B"/>
<path d="M6.23075 6.42763C7.04375 6.42763 7.70336 5.76802 7.70336 4.95502C7.70336 4.14202 7.04375 3.48242 6.23075 3.48242C5.41775 3.48242 4.75815 4.14202 4.75815 4.95502C4.75815 5.76802 5.41775 6.42763 6.23075 6.42763ZM7.53973 6.75487H6.97626C6.74923 6.85918 6.49664 6.91849 6.23075 6.91849C5.96487 6.91849 5.7133 6.85918 5.48525 6.75487H4.92177C4.19877 6.75487 3.61279 7.34084 3.61279 8.06385V8.22747C3.61279 8.49847 3.83266 8.71834 4.10366 8.71834H8.35785C8.62885 8.71834 8.84871 8.49847 8.84871 8.22747V8.06385C8.84871 7.34084 8.26274 6.75487 7.53973 6.75487Z" fill="#FFD66B"/>
</svg>
