<svg width="13" height="13" viewBox="0 0 13 13" fill="none" xmlns="http://www.w3.org/2000/svg">
<circle cx="6.35657" cy="6.33533" r="5.17225" fill="white" stroke="#5B93FF"/>
<path d="M6.35649 6.66261C7.16948 6.66261 7.82909 6.00301 7.82909 5.19001C7.82909 4.37701 7.16948 3.71741 6.35649 3.71741C5.54349 3.71741 4.88388 4.37701 4.88388 5.19001C4.88388 6.00301 5.54349 6.66261 6.35649 6.66261ZM7.66547 6.98986H7.10199C6.87496 7.09417 6.62237 7.15348 6.35649 7.15348C6.0906 7.15348 5.83903 7.09417 5.61098 6.98986H5.04751C4.3245 6.98986 3.73853 7.57583 3.73853 8.29884V8.46246C3.73853 8.73346 3.95839 8.95333 4.22939 8.95333H8.48358C8.75458 8.95333 8.97445 8.73346 8.97445 8.46246V8.29884C8.97445 7.57583 8.38847 6.98986 7.66547 6.98986Z" fill="#5B93FF"/>
</svg>
