<svg width="197" height="138" viewBox="0 0 197 138" fill="none" xmlns="http://www.w3.org/2000/svg">
<g filter="url(#filter0_d_346_15665)">
<rect x="102.69" y="27" width="49.3095" height="49.3095" rx="10" fill="white"/>
</g>
<circle cx="127.286" cy="51.5954" r="13.9446" stroke="#5B93FF" stroke-opacity="0.05" stroke-width="4"/>
<path d="M122.43 49.5V53H121.78V50.045H121.04V49.5H122.43ZM124.584 53.05C124.304 53.05 124.054 52.98 123.834 52.84C123.614 52.6967 123.441 52.49 123.314 52.22C123.188 51.9467 123.124 51.6233 123.124 51.25C123.124 50.8767 123.188 50.555 123.314 50.285C123.441 50.0117 123.614 49.805 123.834 49.665C124.054 49.5217 124.304 49.45 124.584 49.45C124.864 49.45 125.114 49.5217 125.334 49.665C125.558 49.805 125.733 50.0117 125.859 50.285C125.986 50.555 126.049 50.8767 126.049 51.25C126.049 51.6233 125.986 51.9467 125.859 52.22C125.733 52.49 125.558 52.6967 125.334 52.84C125.114 52.98 124.864 53.05 124.584 53.05ZM124.584 52.485C124.834 52.485 125.031 52.3817 125.174 52.175C125.321 51.9683 125.394 51.66 125.394 51.25C125.394 50.84 125.321 50.5317 125.174 50.325C125.031 50.1183 124.834 50.015 124.584 50.015C124.338 50.015 124.141 50.1183 123.994 50.325C123.851 50.5317 123.779 50.84 123.779 51.25C123.779 51.66 123.851 51.9683 123.994 52.175C124.141 52.3817 124.338 52.485 124.584 52.485ZM126.568 51.35H127.943V51.87H126.568V51.35ZM131.581 52.205H130.961V53H130.331V52.205H128.411V51.755L130.136 49.5H130.831L129.206 51.655H130.351V50.95H130.961V51.655H131.581V52.205ZM133.315 53.05C133.035 53.05 132.785 52.98 132.565 52.84C132.345 52.6967 132.171 52.49 132.045 52.22C131.918 51.9467 131.855 51.6233 131.855 51.25C131.855 50.8767 131.918 50.555 132.045 50.285C132.171 50.0117 132.345 49.805 132.565 49.665C132.785 49.5217 133.035 49.45 133.315 49.45C133.595 49.45 133.845 49.5217 134.065 49.665C134.288 49.805 134.463 50.0117 134.59 50.285C134.716 50.555 134.78 50.8767 134.78 51.25C134.78 51.6233 134.716 51.9467 134.59 52.22C134.463 52.49 134.288 52.6967 134.065 52.84C133.845 52.98 133.595 53.05 133.315 53.05ZM133.315 52.485C133.565 52.485 133.761 52.3817 133.905 52.175C134.051 51.9683 134.125 51.66 134.125 51.25C134.125 50.84 134.051 50.5317 133.905 50.325C133.761 50.1183 133.565 50.015 133.315 50.015C133.068 50.015 132.871 50.1183 132.725 50.325C132.581 50.5317 132.51 50.84 132.51 51.25C132.51 51.66 132.581 51.9683 132.725 52.175C132.871 52.3817 133.068 52.485 133.315 52.485Z" fill="#030229"/>
<path d="M126.742 37.5142C126.7 36.5258 127.469 35.68 128.456 35.7489C131.525 35.9632 134.48 37.0621 136.955 38.9313C139.908 41.162 141.994 44.3506 142.853 47.9505C143.713 51.5504 143.294 55.3373 141.667 58.6619C140.304 61.4478 138.165 63.7637 135.524 65.3416C134.675 65.849 133.607 65.4421 133.198 64.5414C132.789 63.6407 133.197 62.5894 134.029 62.0546C135.919 60.8399 137.452 59.126 138.45 57.0876C139.711 54.5099 140.036 51.5738 139.369 48.7827C138.703 45.9916 137.086 43.5194 134.796 41.7899C132.985 40.4222 130.842 39.5864 128.607 39.357C127.623 39.256 126.784 38.5025 126.742 37.5142Z" fill="#5B93FF"/>
<g filter="url(#filter1_d_346_15665)">
<rect x="43" y="27" width="49.3095" height="49.3095" rx="10" fill="white"/>
</g>
<path d="M64.63 50.7995L62.905 51.4445L64.63 52.0895V52.6095L62.325 51.7145V51.1745L64.63 50.2795V50.7995ZM67.7611 49.6945V53.1945H67.1111V50.2395H66.3711V49.6945H67.7611ZM69.9154 53.2445C69.6354 53.2445 69.3854 53.1745 69.1654 53.0345C68.9454 52.8911 68.772 52.6845 68.6454 52.4145C68.5187 52.1411 68.4554 51.8178 68.4554 51.4445C68.4554 51.0711 68.5187 50.7495 68.6454 50.4795C68.772 50.2061 68.9454 49.9995 69.1654 49.8595C69.3854 49.7161 69.6354 49.6445 69.9154 49.6445C70.1954 49.6445 70.4454 49.7161 70.6654 49.8595C70.8887 49.9995 71.0637 50.2061 71.1904 50.4795C71.317 50.7495 71.3804 51.0711 71.3804 51.4445C71.3804 51.8178 71.317 52.1411 71.1904 52.4145C71.0637 52.6845 70.8887 52.8911 70.6654 53.0345C70.4454 53.1745 70.1954 53.2445 69.9154 53.2445ZM69.9154 52.6795C70.1654 52.6795 70.362 52.5761 70.5054 52.3695C70.652 52.1628 70.7254 51.8545 70.7254 51.4445C70.7254 51.0345 70.652 50.7261 70.5054 50.5195C70.362 50.3128 70.1654 50.2095 69.9154 50.2095C69.6687 50.2095 69.472 50.3128 69.3254 50.5195C69.182 50.7261 69.1104 51.0345 69.1104 51.4445C69.1104 51.8545 69.182 52.1628 69.3254 52.3695C69.472 52.5761 69.6687 52.6795 69.9154 52.6795Z" fill="#030229"/>
<circle cx="67.5954" cy="51.5954" r="13.9446" stroke="#5B93FF" stroke-opacity="0.05" stroke-width="4"/>
<path d="M67.0518 37.5142C67.0097 36.5258 67.7788 35.68 68.7656 35.7489C71.6002 35.9469 74.3422 36.9 76.7 38.5242C79.0579 40.1485 80.9255 42.3709 82.1205 44.9488C82.5366 45.8463 82.0203 46.8663 81.0819 47.1791C80.1434 47.4919 79.1404 46.9766 78.6954 46.0932C77.7661 44.2484 76.3845 42.6568 74.6678 41.4742C72.9511 40.2916 70.9717 39.5679 68.9169 39.357C67.9329 39.256 67.094 38.5025 67.0518 37.5142Z" fill="#FFD66B"/>
<defs>
<filter id="filter0_d_346_15665" x="59.6904" y="0" width="137.31" height="137.31" filterUnits="userSpaceOnUse" color-interpolation-filters="sRGB">
<feFlood flood-opacity="0" result="BackgroundImageFix"/>
<feColorMatrix in="SourceAlpha" type="matrix" values="0 0 0 0 0 0 0 0 0 0 0 0 0 0 0 0 0 0 127 0" result="hardAlpha"/>
<feOffset dx="1" dy="17"/>
<feGaussianBlur stdDeviation="22"/>
<feColorMatrix type="matrix" values="0 0 0 0 0.0117647 0 0 0 0 0.00784314 0 0 0 0 0.160784 0 0 0 0.07 0"/>
<feBlend mode="normal" in2="BackgroundImageFix" result="effect1_dropShadow_346_15665"/>
<feBlend mode="normal" in="SourceGraphic" in2="effect1_dropShadow_346_15665" result="shape"/>
</filter>
<filter id="filter1_d_346_15665" x="0" y="0" width="137.31" height="137.31" filterUnits="userSpaceOnUse" color-interpolation-filters="sRGB">
<feFlood flood-opacity="0" result="BackgroundImageFix"/>
<feColorMatrix in="SourceAlpha" type="matrix" values="0 0 0 0 0 0 0 0 0 0 0 0 0 0 0 0 0 0 127 0" result="hardAlpha"/>
<feOffset dx="1" dy="17"/>
<feGaussianBlur stdDeviation="22"/>
<feColorMatrix type="matrix" values="0 0 0 0 0.0117647 0 0 0 0 0.00784314 0 0 0 0 0.160784 0 0 0 0.07 0"/>
<feBlend mode="normal" in2="BackgroundImageFix" result="effect1_dropShadow_346_15665"/>
<feBlend mode="normal" in="SourceGraphic" in2="effect1_dropShadow_346_15665" result="shape"/>
</filter>
</defs>
</svg>
