<svg width="197" height="138" viewBox="0 0 197 138" fill="none" xmlns="http://www.w3.org/2000/svg">
<g filter="url(#filter0_d_346_15683)">
<rect x="102.69" y="27" width="49.3095" height="49.3095" rx="10" fill="white"/>
</g>
<path d="M123.43 49.4999V52.9999H122.78V50.0449H122.04V49.4999H123.43ZM125.584 53.0499C125.304 53.0499 125.054 52.9799 124.834 52.8399C124.614 52.6965 124.441 52.4899 124.314 52.2199C124.188 51.9465 124.124 51.6232 124.124 51.2499C124.124 50.8765 124.188 50.5549 124.314 50.2849C124.441 50.0115 124.614 49.8049 124.834 49.6649C125.054 49.5215 125.304 49.4499 125.584 49.4499C125.864 49.4499 126.114 49.5215 126.334 49.6649C126.558 49.8049 126.733 50.0115 126.859 50.2849C126.986 50.5549 127.049 50.8765 127.049 51.2499C127.049 51.6232 126.986 51.9465 126.859 52.2199C126.733 52.4899 126.558 52.6965 126.334 52.8399C126.114 52.9799 125.864 53.0499 125.584 53.0499ZM125.584 52.4849C125.834 52.4849 126.031 52.3815 126.174 52.1749C126.321 51.9682 126.394 51.6599 126.394 51.2499C126.394 50.8399 126.321 50.5315 126.174 50.3249C126.031 50.1182 125.834 50.0149 125.584 50.0149C125.338 50.0149 125.141 50.1182 124.994 50.3249C124.851 50.5315 124.779 50.8399 124.779 51.2499C124.779 51.6599 124.851 51.9682 124.994 52.1749C125.141 52.3815 125.338 52.4849 125.584 52.4849ZM128.949 53.0499C128.669 53.0499 128.419 52.9799 128.199 52.8399C127.979 52.6965 127.805 52.4899 127.679 52.2199C127.552 51.9465 127.489 51.6232 127.489 51.2499C127.489 50.8765 127.552 50.5549 127.679 50.2849C127.805 50.0115 127.979 49.8049 128.199 49.6649C128.419 49.5215 128.669 49.4499 128.949 49.4499C129.229 49.4499 129.479 49.5215 129.699 49.6649C129.922 49.8049 130.097 50.0115 130.224 50.2849C130.35 50.5549 130.414 50.8765 130.414 51.2499C130.414 51.6232 130.35 51.9465 130.224 52.2199C130.097 52.4899 129.922 52.6965 129.699 52.8399C129.479 52.9799 129.229 53.0499 128.949 53.0499ZM128.949 52.4849C129.199 52.4849 129.395 52.3815 129.539 52.1749C129.685 51.9682 129.759 51.6599 129.759 51.2499C129.759 50.8399 129.685 50.5315 129.539 50.3249C129.395 50.1182 129.199 50.0149 128.949 50.0149C128.702 50.0149 128.505 50.1182 128.359 50.3249C128.215 50.5315 128.144 50.8399 128.144 51.2499C128.144 51.6599 128.215 51.9682 128.359 52.1749C128.505 52.3815 128.702 52.4849 128.949 52.4849ZM133.287 51.4999H132.402V52.3749H131.867V51.4999H130.982V50.9999H131.867V50.1249H132.402V50.9999H133.287V51.4999Z" fill="#030229"/>
<circle cx="127.286" cy="51.5954" r="13.9446" stroke="#5B93FF" stroke-opacity="0.05" stroke-width="4"/>
<path d="M126.742 37.5142C126.7 36.5258 127.469 35.68 128.456 35.7489C131.964 35.9938 135.312 37.3943 137.961 39.7579C141.057 42.521 142.955 46.3827 143.249 50.5224C143.544 54.662 142.213 58.7535 139.539 61.9275C136.866 65.1015 133.059 67.1079 128.93 67.5204C124.8 67.9328 120.673 66.7189 117.424 64.1365C114.175 61.554 112.061 57.8066 111.531 53.6904C111.001 49.5742 112.097 45.4136 114.586 42.0926C116.715 39.2518 119.72 37.2168 123.11 36.2829C124.064 36.0201 124.985 36.6971 125.139 37.6743C125.293 38.6514 124.62 39.556 123.675 39.8496C121.205 40.6175 119.022 42.1468 117.453 44.2409C115.523 46.8158 114.673 50.0417 115.084 53.2331C115.495 56.4245 117.134 59.33 119.653 61.3322C122.172 63.3345 125.372 64.2757 128.574 63.9559C131.776 63.6361 134.727 62.0805 136.8 59.6196C138.873 57.1587 139.905 53.9864 139.676 50.7768C139.448 47.5671 137.977 44.5731 135.576 42.4307C133.623 40.6884 131.181 39.6211 128.607 39.357C127.623 39.256 126.784 38.5025 126.742 37.5142Z" fill="#53B9EA"/>
<g filter="url(#filter1_d_346_15683)">
<rect x="43" y="27" width="49.3095" height="49.3095" rx="10" fill="white"/>
</g>
<path d="M62.34 52.2049H61.72V52.9999H61.09V52.2049H59.17V51.7549L60.895 49.4999H61.59L59.965 51.6549H61.11V50.9499H61.72V51.6549H62.34V52.2049ZM64.0736 53.0499C63.7936 53.0499 63.5436 52.9799 63.3236 52.8399C63.1036 52.6965 62.9302 52.4899 62.8036 52.2199C62.6769 51.9465 62.6136 51.6232 62.6136 51.2499C62.6136 50.8765 62.6769 50.5549 62.8036 50.2849C62.9302 50.0115 63.1036 49.8049 63.3236 49.6649C63.5436 49.5215 63.7936 49.4499 64.0736 49.4499C64.3536 49.4499 64.6036 49.5215 64.8236 49.6649C65.0469 49.8049 65.2219 50.0115 65.3486 50.2849C65.4752 50.5549 65.5386 50.8765 65.5386 51.2499C65.5386 51.6232 65.4752 51.9465 65.3486 52.2199C65.2219 52.4899 65.0469 52.6965 64.8236 52.8399C64.6036 52.9799 64.3536 53.0499 64.0736 53.0499ZM64.0736 52.4849C64.3236 52.4849 64.5202 52.3815 64.6636 52.1749C64.8102 51.9682 64.8836 51.6599 64.8836 51.2499C64.8836 50.8399 64.8102 50.5315 64.6636 50.3249C64.5202 50.1182 64.3236 50.0149 64.0736 50.0149C63.8269 50.0149 63.6302 50.1182 63.4836 50.3249C63.3402 50.5315 63.2686 50.8399 63.2686 51.2499C63.2686 51.6599 63.3402 51.9682 63.4836 52.1749C63.6302 52.3815 63.8269 52.4849 64.0736 52.4849ZM66.0572 51.3499H67.4322V51.8699H66.0572V51.3499ZM69.0384 49.4999V52.9999H68.3884V50.0449H67.6484V49.4999H69.0384ZM71.1927 53.0499C70.9127 53.0499 70.6627 52.9799 70.4427 52.8399C70.2227 52.6965 70.0494 52.4899 69.9227 52.2199C69.796 51.9465 69.7327 51.6232 69.7327 51.2499C69.7327 50.8765 69.796 50.5549 69.9227 50.2849C70.0494 50.0115 70.2227 49.8049 70.4427 49.6649C70.6627 49.5215 70.9127 49.4499 71.1927 49.4499C71.4727 49.4499 71.7227 49.5215 71.9427 49.6649C72.166 49.8049 72.341 50.0115 72.4677 50.2849C72.5944 50.5549 72.6577 50.8765 72.6577 51.2499C72.6577 51.6232 72.5944 51.9465 72.4677 52.2199C72.341 52.4899 72.166 52.6965 71.9427 52.8399C71.7227 52.9799 71.4727 53.0499 71.1927 53.0499ZM71.1927 52.4849C71.4427 52.4849 71.6394 52.3815 71.7827 52.1749C71.9294 51.9682 72.0027 51.6599 72.0027 51.2499C72.0027 50.8399 71.9294 50.5315 71.7827 50.3249C71.6394 50.1182 71.4427 50.0149 71.1927 50.0149C70.946 50.0149 70.7494 50.1182 70.6027 50.3249C70.4594 50.5315 70.3877 50.8399 70.3877 51.2499C70.3877 51.6599 70.4594 51.9682 70.6027 52.1749C70.7494 52.3815 70.946 52.4849 71.1927 52.4849ZM74.557 53.0499C74.277 53.0499 74.027 52.9799 73.807 52.8399C73.587 52.6965 73.4136 52.4899 73.287 52.2199C73.1603 51.9465 73.097 51.6232 73.097 51.2499C73.097 50.8765 73.1603 50.5549 73.287 50.2849C73.4136 50.0115 73.587 49.8049 73.807 49.6649C74.027 49.5215 74.277 49.4499 74.557 49.4499C74.837 49.4499 75.087 49.5215 75.307 49.6649C75.5303 49.8049 75.7053 50.0115 75.832 50.2849C75.9586 50.5549 76.022 50.8765 76.022 51.2499C76.022 51.6232 75.9586 51.9465 75.832 52.2199C75.7053 52.4899 75.5303 52.6965 75.307 52.8399C75.087 52.9799 74.837 53.0499 74.557 53.0499ZM74.557 52.4849C74.807 52.4849 75.0036 52.3815 75.147 52.1749C75.2936 51.9682 75.367 51.6599 75.367 51.2499C75.367 50.8399 75.2936 50.5315 75.147 50.3249C75.0036 50.1182 74.807 50.0149 74.557 50.0149C74.3103 50.0149 74.1136 50.1182 73.967 50.3249C73.8236 50.5315 73.752 50.8399 73.752 51.2499C73.752 51.6599 73.8236 51.9682 73.967 52.1749C74.1136 52.3815 74.3103 52.4849 74.557 52.4849Z" fill="#030229"/>
<circle cx="67.5954" cy="51.5954" r="13.9446" stroke="#5B93FF" stroke-opacity="0.05" stroke-width="4"/>
<path d="M79.6976 44.2192C80.5393 43.6995 81.6531 43.9572 82.0752 44.8519C83.2313 47.3024 83.748 50.0169 83.5623 52.7398C83.3358 56.0607 82.0757 59.2274 79.9586 61.796C77.8415 64.3645 74.9736 66.2061 71.7571 67.0625C68.5406 67.9189 65.1366 67.7472 62.0226 66.5715C58.9086 65.3957 56.2406 63.2749 54.3928 60.5063C52.5449 57.7377 51.6099 54.4603 51.7187 51.1335C51.8275 47.8066 52.9748 44.5973 54.9996 41.9554C56.6598 39.7893 58.8417 38.0937 61.3289 37.0187C62.2369 36.6263 63.2431 37.169 63.5313 38.1153C63.8195 39.0616 63.2782 40.0508 62.3834 40.4726C60.6072 41.3099 59.0478 42.5624 57.8428 44.1346C56.2729 46.1829 55.3834 48.6712 55.299 51.2506C55.2146 53.83 55.9396 56.3711 57.3723 58.5176C58.805 60.6642 60.8736 62.3086 63.288 63.2202C65.7024 64.1318 68.3415 64.2649 70.8354 63.6009C73.3293 62.9369 75.5528 61.509 77.1943 59.5176C78.8357 57.5261 79.8128 55.0708 79.9884 52.496C80.1232 50.5198 79.7807 48.5492 79.0011 46.7469C78.6084 45.839 78.8559 44.7388 79.6976 44.2192Z" fill="#FF8F6B"/>
<defs>
<filter id="filter0_d_346_15683" x="59.6904" y="0" width="137.31" height="137.31" filterUnits="userSpaceOnUse" color-interpolation-filters="sRGB">
<feFlood flood-opacity="0" result="BackgroundImageFix"/>
<feColorMatrix in="SourceAlpha" type="matrix" values="0 0 0 0 0 0 0 0 0 0 0 0 0 0 0 0 0 0 127 0" result="hardAlpha"/>
<feOffset dx="1" dy="17"/>
<feGaussianBlur stdDeviation="22"/>
<feColorMatrix type="matrix" values="0 0 0 0 0.0117647 0 0 0 0 0.00784314 0 0 0 0 0.160784 0 0 0 0.07 0"/>
<feBlend mode="normal" in2="BackgroundImageFix" result="effect1_dropShadow_346_15683"/>
<feBlend mode="normal" in="SourceGraphic" in2="effect1_dropShadow_346_15683" result="shape"/>
</filter>
<filter id="filter1_d_346_15683" x="0" y="0" width="137.31" height="137.31" filterUnits="userSpaceOnUse" color-interpolation-filters="sRGB">
<feFlood flood-opacity="0" result="BackgroundImageFix"/>
<feColorMatrix in="SourceAlpha" type="matrix" values="0 0 0 0 0 0 0 0 0 0 0 0 0 0 0 0 0 0 127 0" result="hardAlpha"/>
<feOffset dx="1" dy="17"/>
<feGaussianBlur stdDeviation="22"/>
<feColorMatrix type="matrix" values="0 0 0 0 0.0117647 0 0 0 0 0.00784314 0 0 0 0 0.160784 0 0 0 0.07 0"/>
<feBlend mode="normal" in2="BackgroundImageFix" result="effect1_dropShadow_346_15683"/>
<feBlend mode="normal" in="SourceGraphic" in2="effect1_dropShadow_346_15683" result="shape"/>
</filter>
</defs>
</svg>
