<svg width="11" height="13" viewBox="0 0 11 13" fill="none" xmlns="http://www.w3.org/2000/svg">
<path d="M10.8193 11.5395L8.74218 9.34004C9.41235 8.43329 9.77598 7.31357 9.77463 6.16085C9.77463 5.13426 9.48799 4.13073 8.95097 3.27716C8.41394 2.42358 7.65065 1.7583 6.75761 1.36544C5.86457 0.972586 4.88189 0.869796 3.93385 1.07007C2.9858 1.27035 2.11497 1.7647 1.43146 2.4906C0.74796 3.21651 0.282489 4.14137 0.0939106 5.14823C-0.0946675 6.15509 0.00211758 7.19873 0.372027 8.14717C0.741936 9.09561 1.36836 9.90626 2.17207 10.4766C2.97578 11.0469 3.9207 11.3514 4.88732 11.3514C5.9727 11.3528 7.02701 10.9666 7.8808 10.2549L9.95179 12.4608C10.0086 12.5216 10.0762 12.5699 10.1506 12.6029C10.225 12.6358 10.3049 12.6527 10.3855 12.6527C10.4662 12.6527 10.546 12.6358 10.6205 12.6029C10.6949 12.5699 10.7625 12.5216 10.8193 12.4608C10.8766 12.4005 10.922 12.3288 10.953 12.2497C10.984 12.1706 11 12.0858 11 12.0002C11 11.9145 10.984 11.8297 10.953 11.7507C10.922 11.6716 10.8766 11.5998 10.8193 11.5395ZM1.22183 6.16085C1.22183 5.39091 1.43681 4.63826 1.83958 3.99808C2.24234 3.3579 2.81482 2.85894 3.4846 2.56429C4.15438 2.26965 4.89138 2.19256 5.60242 2.34277C6.31345 2.49297 6.96658 2.86374 7.47921 3.40817C7.99183 3.95259 8.34094 4.64624 8.48237 5.40139C8.6238 6.15653 8.55121 6.93926 8.27378 7.65059C7.99635 8.36192 7.52654 8.96991 6.92375 9.39766C6.32096 9.82542 5.61228 10.0537 4.88732 10.0537C3.91517 10.0537 2.98284 9.64359 2.29543 8.91353C1.60801 8.18348 1.22183 7.19331 1.22183 6.16085Z" fill="#BBBBBB"/>
</svg>
