<svg width="32" height="19" viewBox="0 0 32 19" fill="none" xmlns="http://www.w3.org/2000/svg">
<path d="M1.0094 18.1027C1.14969 18.2414 1.31418 18.3351 1.48727 18.3844C1.87943 18.4959 2.31535 18.3794 2.61119 18.0418L10.3997 9.15537C10.8187 8.67717 11.4943 8.5502 12.0423 8.84674L17.8299 11.9768C19.1318 12.6807 20.6982 12.4948 21.8213 11.5033L29.1442 5.03918L28.594 11.6551C28.5449 12.2462 28.9067 12.7751 29.4283 12.9235C29.4911 12.9414 29.5564 12.9538 29.6234 12.96C30.2468 13.0185 30.797 12.5291 30.852 11.8669L31.6559 2.19893C31.6824 1.88094 31.5888 1.56479 31.3957 1.32007C31.2027 1.07532 30.926 0.922023 30.6266 0.894014L21.8716 0.0729637C21.2482 0.0144762 20.698 0.50391 20.643 1.16607C20.5879 1.82831 21.0489 2.41239 21.6723 2.47099L27.8508 3.05046L20.3724 9.65193C19.9464 10.028 19.3523 10.0986 18.8585 9.83157L13.0708 6.70151C11.6263 5.9202 9.84527 6.25464 8.74053 7.51511L0.952036 16.4016C0.525581 16.8882 0.551212 17.6498 1.0094 18.1027Z" fill="#53B9EA"/>
</svg>
